/* XPM */
static char *_a9b9fd34a6646fbe961a34672be59bf[] = {
/* columns rows colors chars-per-pixel */
"32 32 108 2 ",
"   c None",
".  c #A36F5C",
"X  c #A06E5F",
"o  c #A3705C",
"O  c #92626D",
"+  c #91646E",
"@  c #90696F",
"#  c #8D6172",
"$  c #BE963E",
"%  c #E99C16",
"&  c #E99D16",
"*  c #E79D18",
"=  c #F6AF03",
"-  c #F5AE05",
";  c #F7AE04",
":  c #F6AF04",
">  c #F7AE05",
",  c #FCAB01",
"<  c #FDAB01",
"1  c #FEAB00",
"2  c #FFAB00",
"3  c #FEAB01",
"4  c #FBAC01",
"5  c #FBAD01",
"6  c #FBAE01",
"7  c #F9AC03",
"8  c #FAAC02",
"9  c #FBAC02",
"0  c #FAAD02",
"q  c #FAAC03",
"w  c #FBAC03",
"e  c #F9AE02",
"r  c #F8AE03",
"t  c #F9AE03",
"y  c #F8AF03",
"u  c #FCAC01",
"i  c #FDAC01",
"p  c #FCAD01",
"a  c #FDAD01",
"s  c #FEAC00",
"d  c #FFAC00",
"f  c #FEAD00",
"g  c #FFAD00",
"h  c #FEAC01",
"j  c #FEAD01",
"k  c #FFAE00",
"l  c #FFAF00",
"z  c #FCAC02",
"x  c #FDAC02",
"c  c #FCAD02",
"v  c #F8AD04",
"b  c #F8AC05",
"n  c #F4A40B",
"m  c #F0A30F",
"M  c #F2A70C",
"N  c #F1A70E",
"B  c #F5A90A",
"V  c #FFB000",
"C  c #EEA211",
"Z  c #EEA710",
"A  c #EAA514",
"S  c #E9A416",
"D  c #D19E2E",
"F  c #CA9A36",
"G  c #DFA320",
"H  c #DDA222",
"J  c #DAA024",
"K  c #A18F5B",
"L  c #9E8D61",
"P  c #85857A",
"I  c #677A94",
"U  c #637A9D",
"Y  c #5978A4",
"T  c #5A78A4",
"R  c #5574AA",
"E  c #2C1FD3",
"W  c #291DD6",
"Q  c #261CD9",
"!  c #3425CB",
"~  c #3325CC",
"^  c #3628C9",
"/  c #2428DA",
"(  c #0603F9",
")  c #0502FA",
"_  c #0402FB",
"`  c #0301FC",
"'  c #0201FD",
"]  c #0303FC",
"[  c #0202FD",
"{  c #0203FD",
"}  c #0100FE",
"|  c #0101FE",
" . c blue",
".. c #0100FF",
"X. c #0001FF",
"o. c #0201FE",
"O. c #0002FF",
"+. c #0306FC",
"@. c #0514F9",
"#. c #0614F8",
"$. c #0212FD",
"%. c #0010FF",
"&. c #386CC5",
"*. c #2265DD",
"=. c #2064DF",
"-. c #035BFC",
";. c #0058FF",
":. c #0059FF",
/* pixels */
"                                                                ",
"                  2 2 2 2 g g g g w w                           ",
"          ;.  g 2 2 2 2 2 2 2 2 2 2 g 2 -                       ",
"        ;.R 2 2 2 2 2 2 2 2 2 2 2 2 2 2 2 g                     ",
"      ;.T S 2 2 2 2 2 2 2 2 2 g 2 2 2 2 2 2 w                   ",
"      T Z g 2 2 2 w q         q q 2 2 2 2 2 2 g                 ",
"    &.J g 2 2 4                     q 2 2 2 2 2 w               ",
"    K 2 2 2                           q 2 2 2 2 2 q             ",
"  I S g 2                               - 2 2 2 2 2             ",
"  $ 2 g g                 @.              q 2 2 2 2 q           ",
"  N 2 2               $.$.@.     . . .      2 2 2 2 q           ",
"  g 2 4               / @ C g ^  . . .      - 2 2 2 w           ",
"  2 2                 g g g 2 .  . . . .      g 2 2 2           ",
"4 2 2            . .# g 2 g 2 N +. . . .      g 2 2 x           ",
"4 2 4          . . .Q g 2 2 g g !  . . . .    q 2 2 2           ",
"4 g q          . . . .& H L F B o  . . . .    x 2 2 2           ",
"  g 4          . . . .O G =.=.D n +. . . .    2 2 2 2           ",
"  2 4          . . . .E g U P 2 g ~  . . .    2 2 2 2           ",
"  2 w            . .]  .* H N 2 V O  . . .    2 2 2 2           ",
"  g g            . . . .+ g 2 2 g N +. .      2 2 2 w           ",
"    g -            . . .~ w 2 2 g g         2 2 2 2             ",
"    2 2       )    . .] ] * 2 2             g g 2 2             ",
"      w w     ( )  . . . .                4 g g g 2 g           ",
"      - g -     ) ]                               4 g 4 g       ",
"        q q        . .]               ]  . . .                  ",
"          V g :      . . . . .]  . . . . . . . . . .            ",
"            : 4 V          . . . . . .] ]  .]  . . . .]         ",
"                : q 4 g                             ]  . .      ",
"                      g g                                . .    ",
"                                                          ] ]   ",
"                                                                ",
"                                                                "
};
