/* XPM */
static char *a3afa07c2ad74aa0ccc5c5529892144b[] = {
/* columns rows colors chars-per-pixel */
"64 64 241 2 ",
"   c None",
".  c #DEA41E",
"X  c #ECAD09",
"o  c #F6AE03",
"O  c #F7AF03",
"+  c #F6A907",
"@  c #F6AA07",
"#  c #F2AD05",
"$  c #F0AF05",
"%  c #F1AE07",
"&  c #F1AF07",
"*  c #F2AF07",
"=  c #F5AC05",
"-  c #F6AC04",
";  c #F7AD04",
":  c #F6AC05",
">  c #F6AD05",
",  c #F4AE05",
"<  c #F5AF05",
"1  c #F6AE04",
"2  c #F7AE04",
"3  c #F7AF04",
"4  c #F4AC06",
"5  c #F4AD06",
"6  c #F6AD06",
"7  c #F6AC07",
"8  c #F4AE06",
"9  c #F7AE07",
"0  c #FBAB01",
"q  c #F9AB02",
"w  c #F9AB03",
"e  c #FBAB02",
"r  c #FAAB03",
"t  c #FBAB03",
"y  c #FCAB01",
"u  c #FDAB01",
"i  c #FEAB00",
"p  c #FFAB00",
"a  c #FEAB01",
"s  c #FCAB02",
"d  c #FDAB02",
"f  c #FBAC01",
"g  c #FBAD01",
"h  c #F9AD02",
"j  c #F8AC03",
"k  c #F8AD03",
"l  c #F9AD03",
"z  c #FAAC02",
"x  c #FBAC02",
"c  c #FAAD02",
"v  c #FBAD02",
"b  c #FAAC03",
"n  c #FBAC03",
"m  c #FAAD03",
"M  c #FBAD03",
"N  c #F9AE02",
"B  c #F8AF03",
"V  c #FBAE02",
"C  c #FAAF02",
"Z  c #FAAE03",
"A  c #FBAE03",
"S  c #FCAC01",
"D  c #FDAC01",
"F  c #FCAD01",
"G  c #FDAD01",
"H  c #FEAC00",
"J  c #FFAC00",
"K  c #FEAD00",
"L  c #FFAD00",
"P  c #FEAC01",
"I  c #FEAD01",
"U  c #FDAE00",
"Y  c #FCAE01",
"T  c #FDAE01",
"R  c #FCAF01",
"E  c #FEAE00",
"W  c #FFAE00",
"Q  c #FEAF00",
"!  c #FFAF00",
"~  c #FCAC02",
"^  c #FCAD02",
"/  c #FCAC03",
"(  c #FAAB05",
")  c #FAAA06",
"_  c #FCAB04",
"`  c #F9AC04",
"'  c #F9AD04",
"]  c #F8AD05",
"[  c #FAAD04",
"{  c #F8AF04",
"}  c #FAAE04",
"|  c #F1A70E",
" . c #F3AB09",
".. c #F5AA08",
"X. c #F1AF09",
"o. c #F2AE09",
"O. c #F1AC0A",
"+. c #F5AC08",
"@. c #F4AD08",
"#. c #EDB107",
"$. c #EDB207",
"%. c #EBB008",
"&. c #EBB20A",
"*. c #EDB209",
"=. c #EEB209",
"-. c #EFB00B",
";. c #E9B408",
":. c #EDB00C",
">. c #F1B005",
",. c #F2B204",
"<. c #F3B204",
"1. c #F2B305",
"2. c #F0B107",
"3. c #F1B207",
"4. c #F2B206",
"5. c #F2B207",
"6. c #F5B105",
"7. c #F7B004",
"8. c #F6B005",
"9. c #F6B205",
"0. c #F4B007",
"q. c #FFB000",
"w. c #FFB100",
"e. c #F0B008",
"r. c #E7A317",
"t. c #EEA711",
"y. c #ECA613",
"u. c #E9A516",
"i. c #E9A616",
"p. c #E7A519",
"a. c #E0A41C",
"s. c #CD9C2E",
"d. c #D39F2C",
"f. c #CB9B33",
"g. c #C89B37",
"h. c #C49A3B",
"j. c #C59A3B",
"k. c #DCA320",
"l. c #D3A028",
"z. c #D3A029",
"x. c #D2A02A",
"c. c #AD944E",
"v. c #AC9353",
"b. c #8A8A6F",
"n. c #8C896F",
"m. c #968B69",
"M. c #948B6C",
"N. c #888370",
"B. c #85877A",
"V. c #81847E",
"C. c #3E68BD",
"Z. c #60799F",
"A. c #4774B5",
"S. c #4472B8",
"D. c #0A05F5",
"F. c #0804F7",
"G. c #0904F7",
"H. c #0A05F6",
"J. c #0302FB",
"K. c #0502F9",
"L. c #0703F8",
"P. c #0603F9",
"I. c #0402FA",
"U. c #0502FA",
"Y. c #0503FA",
"T. c #0402FB",
"R. c #0502FB",
"E. c #0403FB",
"W. c #0603FA",
"Q. c #0504FA",
"!. c #0101FD",
"~. c #0301FC",
"^. c #0201FD",
"/. c #0301FD",
"(. c #0302FC",
"). c #0202FD",
"_. c #0100FE",
"`. c #0101FE",
"'. c blue",
"]. c #0100FF",
"[. c #0001FF",
"{. c #0201FE",
"}. c #0103FE",
"|. c #0002FF",
" X c #0003FF",
".X c #0401FC",
"XX c #0402FC",
"oX c #0304FC",
"OX c #0104FE",
"+X c #0004FF",
"@X c #0803F8",
"#X c #0804F8",
"$X c #0008FF",
"%X c #0715F7",
"&X c #0815F6",
"*X c #0915F6",
"=X c #0817F7",
"-X c #0513F9",
";X c #0513FA",
":X c #0413FB",
">X c #0514F9",
",X c #0614F8",
"<X c #0714F8",
"1X c #0715F8",
"2X c #0614F9",
"3X c #0111FD",
"4X c #0112FD",
"5X c #0312FC",
"6X c #0313FC",
"7X c #0212FD",
"8X c #0111FE",
"9X c #366BC4",
"0X c #3E6EC2",
"qX c #346CC9",
"wX c #306ACF",
"eX c #2C67D3",
"rX c #2B69D1",
"tX c #2B6AD0",
"yX c #2867D8",
"uX c #115FEE",
"iX c #0E5EF1",
"pX c #0D5DF2",
"aX c #0E5EF2",
"sX c #0157FE",
"dX c #0057FF",
"fX c #035AFB",
"gX c #0659F8",
"hX c #0458FB",
"jX c #0159FD",
"kX c #0259FC",
"lX c #0359FC",
"zX c #015AFD",
"xX c #025AFD",
"cX c #0159FE",
"vX c #0058FF",
"bX c #0059FF",
"nX c #005AFE",
"mX c #005AFF",
"MX c #0F60EE",
"NX c #798387",
"BX c #72818A",
/* pixels */
"                                                                                                                                ",
"                                                } I I I I I q.b }                                                               ",
"                        kXhX            p b I p p I I I I I I I I I I I w                                                       ",
"                      kXkX          p p p p p p I p I I p I I I I I I I I I :                                                   ",
"                    kXkX        p p p p p p p p p p p I p I p p p p p I I p I } -.                                              ",
"                  kXkXkX    p p p p p p p p p p p p p p p p p p p p p p p p p I I } :.                                          ",
"                mXmXkX    p p p p p p p p p p p p p p p p p p p p p p p p p p p p p I 0.                                        ",
"              fXmXkXeXr.p p p p p p p p p p p p p p p p p p p p p p p p p p p p p I I I 7.                                      ",
"              kXkXqXf.I p p p p p p p p p p p p p p p p p p p p p p p p p p p p p p p p p b                                     ",
"            kXkXS.x.p p p p p p p p p p p p p p p I q I p p p p p p p p p p p p p p p p p p b                                   ",
"          lXkXA.. I p p p p p p p p p p b b b             X.} b p p p p p p p p p p p p p p p }                                 ",
"          kXtXd.I I p p p p p p p p b                             ; I p p p p p p p p p p p p p b                               ",
"        dXMXc.I p p p p p p p p }                                     : I I p p p p p p p p p p I :                             ",
"        kXBXw p p p p p p p b                           >X                b p p p p p p p p p p p I X.                          ",
"        rXk.I p p p p p p                             >X7X                  : I p p p p p p p p p p b                           ",
"      hXb.p p p p p p p                                 >X                    : p p p p p p p p p p p :                         ",
"      9Xa.I p p p p p                                 *X                        : I p p p p p p p p p b                         ",
"      n.I p p p p p               >X                  1X                          + p p p p p p p p p p @.                      ",
"    C.x.p p p p p q               7X>X                >X                            : I p p p p p p p p }                       ",
"    N...p p p p b                   *X1X            >X%X                              b p p p p p p p p I                       ",
"    s.I p p p I                         -X*X    -X7X7X7X            [.[.              e.I p p p p p p p p X.                    ",
"    + p p p p q                           -X:X7X7X7X7X        +X[.[.[.[.[.[.            b I p p p p p p p w                     ",
"    p p p p p                             =X7X6X        I q.  +X[.[.[.[.[.[.[.          -.I p p p p p p p b                     ",
"  I I p p p b                                     q.I p I I   [.[.[.[.[.[.[.[.            b p p p p p p p b                     ",
"  q I p p p                                 q.I p p p p p p     [.[.[.[.[.[.[.[.          5.p p p p p p p p X.                  ",
"  I p p I b                               I I p p p p p p p I   [.[.[.[.[.[.[.[.          -.I p p p p p p p ..                  ",
"  q p p p b                       [.[.[.  q.p p p p p p p p I   [.[.[.[.[.[.[.[.            b p p p p p p p 9                   ",
"  I p p p :                     [.[.[.[.[.  p p p p p p p p p     [.[.[.[.[.[.[.[.          9.I p p p p p p @.                  ",
"  I p p p                     [.[.[.[.[.[.  I p p p p p p p p I   [.[.[.[.[.[.[.[.          : p p p p p p p ..                  ",
"  I p p I                   [.[.[.[.[.[.[.  q.p p p p p p p p I   [.[.[.[.[.[.[.[.          e.p p p p p p p ..                  ",
"  I I p p                   [.[.[.[.[.[.[.[.  p p p.y.p p I p p     [.[.[.[.[.[.[.[.        @.p p p p p p p :                   ",
"  b p p I                   [.[.[.[.[.[.[.[.  I I M.wXZ.m.j.u.p I   [.[.[.[.[.[.[.[.        w p p p p p p p }                   ",
"  b p p I                   [.[.[.[.[.[.[.[.  q.I j.pXdXkXpXNXd I   [.[.[.[.[.[.[.[.        p p p p p p p p w                   ",
"  p I p b                     [.[.[.[.[.[.[.[.  p | 0XdXkXyXd.p p     [.[.[.[.[.[.[.[.      q p p p p p p p d                   ",
"  q I p p                     [.[.[.[.[.[.[.[.  I I V.kXpXv.I p p I   [.[.[.[.[.[.[.[.      p p p p p p p p                     ",
"    p p I :                   [.[.[.[.[.[.[.[.  q.p h.uXNXd p p p I   [.[.[.[.[.[.[.[.      p p p p p p p d                     ",
"    I p p :                   [.[.[.[.[.[..X[.    I y.B.u.p p p p p     [.[.[.[.[.[.[.      p p p p p p p q                     ",
"    p p I :                     [.[.[.[.[.L.~.[.  I p d p p p p p I I   [.[.[.[.[.[.        p p p p p p p p                     ",
"    b I p p                     [.[.[.[.[..X.X[.  q.p p p p p p p p I   +X[.[.[.[.[.      q p p p p p p p w                     ",
"      p I I #                   [.[.[.[.[.~..X[.    p p p p p p p p I     +X[.[.          p p p p p p p p                       ",
"      I p I b           G.        [.[.[.[.[..X.X[.  I p p p p p p p p I   $X              p p p p p p p p                       ",
"      } I p I             Q.      [.[.[.[.[..X~.[.  q.p p p p p p I I                   q p p p p p p p w                       ",
"        I p p :           .X.X      [.[.[.[.~.~..X    I p p p I                         p p p p p p p p                         ",
"        q I p I -.          Q.Q.    [.[.[.[.~.~.[.[.  I I I                           p I p p p p p p p                         ",
"          b I p b           #X.X.X    [.[.[.[..X[.[.                                  I I I I p I p I p p q                     ",
"            b p p :           #X.X.X    [.[.[.E.                                    b I I I I I I I p I I I I q                 ",
"            %.I I I X         D..X[..X                                                          b b I I I I I I }               ",
"              1.I I I           D.Q.[.[..X                                                                b b I I I             ",
"                : I I I           G.[.[.[.~..X                                                                  b q.b           ",
"                  7.I I b           G.[.[.[.[.[.[..X                    .X.X[.[.[.[.[..X[.[.[..X                    0.#         ",
"                    0.I I b $.        #X.X[.[.[.[.[.[.[..X[.[.[.[.[.[.[.[.[.[.[.[.[.[.[.[.[.[.[.[.[.Q.                          ",
"                      0.I p I 5.          .X~.[.[.[.[.[.[.[.[.[.[.[.[.[.[.[.[.[.[.[.[.[.[.[.[.[.[.[.[.[..X                      ",
"                        5.I p I ; ;.            .X[.[.[.[.[.[.[.[.[.[.[.[.[.[.[.[.[.[.[.[.[.[.[.[.[.[.[.[.[..X                  ",
"                            ; I p I 5.                .X.X[.[..X[..X.X[..X.X.X.X.X.X.X.XQ..X.X.X.X[.[.[.[.[.[..X                ",
"                              5.7.I p I 5.>.                                                        .X.X[.[.[.[.[.              ",
"                                  $.; b p I p q I                                                         .X[.[.[.[.            ",
"                                          # I I p I I I                                                       .X[.[.[.          ",
"                                                                                                                @X[.[.[.        ",
"                                                                                                                    .X[..X      ",
"                                                                                                                      .X[..X    ",
"                                                                                                                          .X    ",
"                                                                                                                                ",
"                                                                                                                                ",
"                                                                                                                                "
};
