/* XPM */
static char *e60c335b8a6247ddc254c624450e4fbb[] = {
/* columns rows colors chars-per-pixel */
"16 16 56 1 ",
"  c None",
". c #875B78",
"X c #865B79",
"o c #90616F",
"O c #F6A807",
"+ c #F6AC06",
"@ c #FAAB03",
"# c #FBAB03",
"$ c #FCAB01",
"% c #FDAB01",
"& c #FEAB00",
"* c #FFAB00",
"= c #FEAB01",
"- c #FCAB02",
"; c #FDAB02",
": c #FBAC03",
"> c #FBAD03",
", c #FAAE02",
"< c #FDAC01",
"1 c #FCAD01",
"2 c #FDAD01",
"3 c #FEAC00",
"4 c #FFAC00",
"5 c #FEAD00",
"6 c #FEAC01",
"7 c #FDAF00",
"8 c #FFAE00",
"9 c #FFAF00",
"0 c #FCAC02",
"q c #FBAB04",
"w c #F2A70C",
"e c #F6A908",
"r c #F9B001",
"t c #FEB000",
"y c #DC9423",
"u c #D69E29",
"i c #CA8935",
"p c #C88C37",
"a c #DEA121",
"s c #DEA321",
"d c #BE9740",
"f c #B59449",
"g c #A99256",
"h c #93886D",
"j c #72578C",
"k c #3523CA",
"l c #3725C8",
"z c #0805F6",
"x c #0807F7",
"c c #0B08F4",
"v c #0706F8",
"b c #0100FE",
"n c blue",
"m c #0100FF",
"M c #3E6EC0",
"N c #2C67D2",
/* pixels */
"     $444       ",
"  Nu4$$$444     ",
" Md4$$##$$$4    ",
" f4$     4$$4   ",
" w4       4$q   ",
"e$    j n  44:  ",
"44   i4yvn t$$  ",
"4   nXssln  $$  ",
"4   nkhgonn $$  ",
",4  nxp:yx $$   ",
" 4  nnX4   44   ",
"  4 nn     Ot4  ",
"  r+ nnnnnnn    ",
"    t  cn   nn  ",
"                ",
"                "
};
